<?xml version="1.0" encoding="UTF-8" ?>
<!DOCTYPE svg PUBLIC "-//W3C//DTD SVG 1.1//EN" "http://www.w3.org/Graphics/SVG/1.1/DTD/svg11.dtd">
<svg viewBox="0 0 154 38" version="1.1" xmlns="http://www.w3.org/2000/svg">
<g id="#ea6139ff">
<path fill="#ea6139" opacity="1.00" d=" M 0.00 0.00 L 0.03 0.00 C 0.02 0.03 0.01 0.09 0.00 0.12 L 0.00 0.00 Z" />
<path fill="#ea6139" opacity="1.00" d=" M 18.52 0.00 L 19.33 0.00 C 18.00 5.10 16.75 10.22 15.38 15.30 C 14.76 15.79 13.53 16.75 12.91 17.24 C 17.23 16.99 22.20 16.26 25.86 19.15 C 28.03 20.54 28.93 23.02 29.95 25.25 C 29.74 22.58 28.97 19.96 27.30 17.83 C 33.37 16.82 40.92 15.43 45.75 20.31 C 50.14 25.28 48.41 32.31 46.67 38.00 L 36.70 38.00 C 37.46 34.24 39.53 30.14 37.68 26.40 C 35.57 24.39 32.45 25.40 29.97 26.00 C 30.29 30.09 29.43 34.13 28.16 38.00 L 18.29 38.00 C 19.16 34.40 21.04 30.43 19.46 26.79 C 18.17 24.36 14.98 25.34 12.80 25.55 C 11.83 29.72 10.80 33.87 9.70 38.00 L 0.00 38.00 L 0.00 37.23 C 2.97 25.59 5.74 13.91 8.63 2.25 C 11.92 1.47 15.22 0.73 18.52 0.00 Z" />
<path fill="#ea6139" opacity="1.00" d=" M 61.75 15.63 C 63.11 15.44 64.47 15.26 65.83 15.07 C 65.78 16.28 65.74 17.48 65.69 18.69 C 68.26 18.13 71.59 18.61 72.69 21.34 C 73.66 24.79 73.10 28.43 73.24 31.96 C 71.91 31.97 70.59 31.97 69.26 31.97 C 69.25 29.35 69.33 26.73 69.25 24.12 C 69.69 21.99 67.09 22.00 65.74 21.86 C 65.71 25.23 65.73 28.61 65.74 31.98 C 64.41 31.97 63.08 31.97 61.76 31.96 C 61.76 26.52 61.77 21.07 61.75 15.63 Z" />
<path fill="#ea6139" opacity="1.00" d=" M 91.07 15.56 C 92.38 15.39 93.70 15.20 95.01 14.98 C 94.99 16.24 94.97 17.50 94.96 18.75 C 96.38 18.76 97.80 18.76 99.23 18.77 C 99.23 19.57 99.24 21.16 99.25 21.96 C 97.82 21.97 96.40 21.97 94.98 21.98 C 95.01 23.90 94.79 25.86 95.16 27.76 C 95.82 29.42 98.00 28.52 99.30 28.57 C 99.47 29.62 99.60 30.66 99.70 31.72 C 96.72 32.56 91.91 32.63 91.28 28.70 C 90.72 24.36 91.14 19.93 91.07 15.56 Z" />
<path fill="#ea6139" opacity="1.00" d=" M 143.63 21.75 C 145.54 17.46 153.06 17.67 154.00 22.64 L 154.00 26.24 C 151.09 26.23 148.17 26.22 145.26 26.29 C 145.67 30.33 150.09 30.48 153.08 29.35 C 154.13 32.56 149.96 32.24 148.05 32.15 C 143.28 31.65 141.49 25.53 143.63 21.75 M 145.47 24.03 C 147.53 24.04 149.59 24.04 151.65 24.03 C 151.55 21.93 149.73 21.14 147.96 20.68 C 146.61 21.44 145.78 22.55 145.47 24.03 Z" />
<path fill="#ea6139" opacity="1.00" d=" M 79.26 19.17 C 83.33 16.99 88.88 20.35 88.51 25.03 C 89.24 29.56 84.40 33.54 80.12 31.89 C 74.55 30.42 74.10 21.45 79.26 19.17 M 80.71 22.58 C 78.63 24.08 79.47 29.39 82.69 28.58 C 86.35 27.62 84.48 20.06 80.71 22.58 Z" />
<path fill="#ea6139" opacity="1.00" d=" M 102.27 19.31 C 105.03 18.76 108.22 18.11 110.72 19.79 C 112.92 18.69 115.38 18.48 117.73 19.19 C 121.07 22.57 119.27 27.75 119.74 31.98 C 119.12 31.98 117.88 31.97 117.26 31.97 C 117.08 28.74 117.74 25.38 116.81 22.24 C 115.87 20.37 113.75 21.07 112.17 21.40 C 112.21 24.92 112.27 28.43 112.25 31.95 C 111.63 31.95 110.38 31.95 109.76 31.96 C 109.57 28.62 110.27 25.14 109.16 21.92 C 108.06 20.57 106.29 21.03 104.79 20.95 C 104.67 24.62 104.74 28.30 104.74 31.98 C 104.12 31.98 102.88 31.97 102.26 31.96 C 102.29 27.75 102.27 23.53 102.27 19.31 Z" />
<path fill="#ea6139" opacity="1.00" d=" M 123.26 19.03 C 123.88 19.03 125.12 19.02 125.74 19.02 C 125.72 23.34 125.73 27.67 125.73 31.99 C 125.11 31.98 123.87 31.97 123.25 31.96 C 123.28 27.65 123.28 23.34 123.26 19.03 Z" />
<path fill="#ea6139" opacity="1.00" d=" M 129.48 19.37 C 132.48 18.79 136.31 17.79 138.74 20.26 C 140.86 23.77 139.64 28.11 139.98 31.99 C 139.36 31.98 138.13 31.97 137.51 31.97 C 137.45 28.93 137.75 25.84 137.17 22.83 C 136.56 20.52 133.86 20.98 132.06 20.97 C 131.89 24.65 131.99 28.32 131.97 32.00 C 131.36 31.99 130.12 31.97 129.51 31.96 C 129.51 27.76 129.55 23.56 129.48 19.37 Z" />
</g>
</svg>
